# Blender v2.79 (sub 0) OBJ File: 'spotlights.blend'
# www.blender.org
mtllib spotlights.mtl
o spolight.001_Cylinder.002
v -0.000000 0.022051 -0.619868
v -0.000000 27.131170 -0.271479
v 0.309934 0.022051 -0.536822
v 0.135740 27.131170 -0.235108
v 0.536822 0.022051 -0.309934
v 0.235108 27.131170 -0.135740
v 0.619868 0.022051 0.000000
v 0.271479 27.131170 0.000000
v 0.536822 0.022051 0.309934
v 0.235108 27.131170 0.135740
v 0.309934 0.022051 0.536822
v 0.135740 27.131170 0.235108
v 0.000000 0.022051 0.619869
v 0.000000 27.131170 0.271480
v -0.309934 0.022051 0.536822
v -0.135740 27.131170 0.235108
v -0.536822 0.022051 0.309935
v -0.235108 27.131170 0.135740
v -0.619869 0.022051 0.000000
v -0.271479 27.131170 0.000000
v -0.536822 0.022051 -0.309934
v -0.235108 27.131170 -0.135739
v -0.309935 0.022051 -0.536822
v -0.135740 27.131170 -0.235108
v -4.081958 26.143147 0.647408
v -4.081958 33.516777 3.577947
v -0.558989 26.791389 -0.467895
v -0.558989 27.470825 -0.467895
v 4.079284 26.143147 0.647408
v 4.079284 33.516777 3.577947
v 0.556314 26.791389 -0.467895
v 0.556314 27.470825 -0.467895
v -4.081958 26.143147 0.647408
v -4.081958 33.516777 3.577947
v 4.079284 26.143147 0.647408
v 4.079284 33.516777 3.577947
vt 0.078980 0.704334
vt 0.156782 0.787943
vt 0.063889 0.723493
vt 0.151237 0.797072
vt 0.051226 0.744337
vt 0.146836 0.806805
vt 0.041179 0.766560
vt 0.033896 0.789836
vt 0.141713 0.827504
vt 0.029482 0.813822
vt 0.141066 0.838165
vt 0.028004 0.838165
vt 0.029482 0.862509
vt 0.141713 0.848827
vt 0.033896 0.886495
vt 0.146837 0.869526
vt 0.041179 0.909771
vt 0.051226 0.931994
vt 0.673256 0.729606
vt 0.713119 0.718925
vt 0.707779 0.738857
vt 0.151237 0.879259
vt 0.063889 0.952838
vt 0.156782 0.888388
vt 0.078980 0.971996
vt 0.277104 0.704334
vt 0.298225 0.783160
vt 0.219400 0.762038
vt 0.814077 0.196649
vt 0.960957 0.434500
vt 0.956764 0.436993
vt 0.366427 0.704334
vt 0.451198 0.707089
vt 0.366427 0.707089
vt 0.960957 0.495485
vt 0.814077 0.733335
vt 0.956758 0.493001
vt 0.673256 0.295779
vt 0.758069 0.648326
vt 0.673256 0.380552
vt 0.028004 0.380551
vt 0.336497 0.028004
vt 0.336497 0.648326
vt 0.617248 0.028004
vt 0.392505 0.648326
vt 0.392505 0.028004
vt 0.163392 0.779552
vt 0.143646 0.816999
vt 0.143646 0.859332
vt 0.698528 0.744197
vt 0.687847 0.744197
vt 0.678596 0.738857
vt 0.673256 0.718925
vt 0.678596 0.709675
vt 0.687847 0.704334
vt 0.698528 0.704334
vt 0.707779 0.709675
vt 0.713119 0.729606
vt 0.163392 0.896778
vt 0.219400 0.737650
vt 0.231594 0.716528
vt 0.252715 0.704334
vt 0.298225 0.716528
vt 0.310419 0.737650
vt 0.310419 0.762038
vt 0.277104 0.795354
vt 0.252715 0.795354
vt 0.231594 0.783160
vt 0.960957 0.028004
vt 0.451198 0.704334
vt 0.960957 0.901981
vt 0.758069 0.028004
vt 0.028004 0.295779
vt 0.617248 0.648326
vn 0.2588 0.0124 -0.9659
vn 0.7071 0.0124 -0.7071
vn 0.9659 0.0124 -0.2588
vn 0.9659 0.0124 0.2588
vn 0.7071 0.0124 0.7071
vn 0.2588 0.0124 0.9659
vn -0.2588 0.0124 0.9659
vn -0.7071 0.0124 0.7071
vn -0.9659 0.0124 0.2588
vn -0.9659 0.0124 -0.2588
vn 0.0000 1.0000 0.0000
vn -0.7071 0.0124 -0.7071
vn -0.2588 0.0124 -0.9659
vn 0.0000 -1.0000 0.0000
vn -0.3018 0.0000 -0.9534
vn 0.0000 0.0000 -1.0000
vn 0.3018 0.0000 -0.9534
vn 0.0000 -0.8646 -0.5025
vn 0.0000 0.5561 -0.8311
vn 0.0000 -0.3693 0.9293
vn -0.3976 0.3389 -0.8527
vn 0.3976 0.3389 -0.8527
usemtl Material.003
s off
f 1/1/1 4/2/1 3/3/1
f 3/3/2 6/4/2 5/5/2
f 5/5/3 8/6/3 7/7/3
f 8/6/4 9/8/4 7/7/4
f 9/8/5 12/9/5 11/10/5
f 11/10/6 14/11/6 13/12/6
f 14/11/7 15/13/7 13/12/7
f 16/14/8 17/15/8 15/13/8
f 17/15/9 20/16/9 19/17/9
f 20/16/10 21/18/10 19/17/10
f 22/19/11 10/20/11 6/21/11
f 22/22/12 23/23/12 21/18/12
f 24/24/13 1/25/13 23/23/13
f 7/26/14 15/27/14 23/28/14
f 25/29/15 28/30/15 27/31/15
f 28/32/16 31/33/16 27/34/16
f 32/35/17 29/36/17 31/37/17
f 31/38/18 25/39/18 27/40/18
f 32/41/19 26/42/19 30/43/19
f 36/44/20 33/45/20 35/46/20
f 1/1/1 2/47/1 4/2/1
f 3/3/2 4/2/2 6/4/2
f 5/5/3 6/4/3 8/6/3
f 8/6/4 10/48/4 9/8/4
f 9/8/5 10/48/5 12/9/5
f 11/10/6 12/9/6 14/11/6
f 14/11/7 16/14/7 15/13/7
f 16/14/8 18/49/8 17/15/8
f 17/15/9 18/49/9 20/16/9
f 20/16/10 22/22/10 21/18/10
f 6/21/11 4/50/11 22/19/11
f 2/51/11 24/52/11 22/19/11
f 22/19/11 20/53/11 18/54/11
f 18/54/11 16/55/11 14/56/11
f 14/56/11 12/57/11 10/20/11
f 10/20/11 8/58/11 6/21/11
f 4/50/11 2/51/11 22/19/11
f 22/19/11 18/54/11 14/56/11
f 14/56/11 10/20/11 22/19/11
f 22/22/12 24/24/12 23/23/12
f 24/24/13 2/59/13 1/25/13
f 23/28/14 1/60/14 3/61/14
f 3/61/14 5/62/14 7/26/14
f 7/26/14 9/63/14 11/64/14
f 11/64/14 13/65/14 7/26/14
f 15/27/14 17/66/14 19/67/14
f 19/67/14 21/68/14 23/28/14
f 23/28/14 3/61/14 7/26/14
f 7/26/14 13/65/14 15/27/14
f 15/27/14 19/67/14 23/28/14
f 25/29/21 26/69/21 28/30/21
f 28/32/16 32/70/16 31/33/16
f 32/35/22 30/71/22 29/36/22
f 31/38/18 29/72/18 25/39/18
f 32/41/19 28/73/19 26/42/19
f 36/44/20 34/74/20 33/45/20
